<svg width="30" height="22" viewBox="0 0 30 22" fill="none" xmlns="http://www.w3.org/2000/svg">
<g clip-path="url(#clip0_286:197)">
<path d="M25.3963 1.9591C23.4842 1.12854 21.4337 0.516615 19.2899 0.166143C19.2508 0.159379 19.2118 0.176283 19.1917 0.210091C18.928 0.654095 18.6359 1.23334 18.4314 1.68862C16.1255 1.36182 13.8315 1.36182 11.5729 1.68862C11.3683 1.22322 11.0656 0.654095 10.8007 0.210091C10.7806 0.177411 10.7416 0.160507 10.7026 0.166143C8.55989 0.515495 6.50945 1.12742 4.59617 1.9591C4.57961 1.96586 4.56541 1.97714 4.55599 1.99178C0.66674 7.49234 -0.398688 12.8577 0.123975 18.1565C0.12634 18.1825 0.141712 18.2073 0.162998 18.223C2.72901 20.0069 5.21463 21.0899 7.6541 21.8078C7.69314 21.8191 7.73451 21.8055 7.75935 21.7751C8.33641 21.0291 8.8508 20.2425 9.29185 19.4153C9.31787 19.3669 9.29303 19.3094 9.23983 19.2902C8.42391 18.9972 7.647 18.64 6.89966 18.2343C6.84055 18.2016 6.83582 18.1216 6.8902 18.0833C7.04747 17.9717 7.20477 17.8556 7.35494 17.7384C7.38211 17.717 7.41997 17.7125 7.45192 17.726C12.3616 19.8481 17.6769 19.8481 22.5287 17.726C22.5606 17.7114 22.5985 17.7159 22.6268 17.7373C22.7771 17.8545 22.9343 17.9717 23.0928 18.0833C23.1472 18.1216 23.1436 18.2016 23.0845 18.2343C22.3372 18.6479 21.5602 18.9972 20.7431 19.2891C20.6899 19.3083 20.6663 19.3669 20.6923 19.4153C21.1428 20.2413 21.6572 21.0279 22.2236 21.774C22.2473 21.8055 22.2898 21.8191 22.3289 21.8078C24.7802 21.0899 27.2658 20.0069 29.8318 18.223C29.8543 18.2073 29.8685 18.1836 29.8708 18.1577C30.4964 12.0316 28.8231 6.71026 25.4353 1.9929C25.427 1.97714 25.4128 1.96586 25.3963 1.9591ZM10.025 14.9301C8.54687 14.9301 7.32892 13.6454 7.32892 12.0677C7.32892 10.49 8.52325 9.2053 10.025 9.2053C11.5386 9.2053 12.7448 10.5013 12.7211 12.0677C12.7211 13.6454 11.5268 14.9301 10.025 14.9301ZM19.9934 14.9301C18.5153 14.9301 17.2974 13.6454 17.2974 12.0677C17.2974 10.49 18.4917 9.2053 19.9934 9.2053C21.507 9.2053 22.7132 10.5013 22.6896 12.0677C22.6896 13.6454 21.507 14.9301 19.9934 14.9301Z" fill="#ADA3E5"/>
</g>
<defs>
<clipPath id="clip0_286:197">
<rect width="30" height="22" fill="white"/>
</clipPath>
</defs>
</svg>
