<svg width="37" height="38" viewBox="0 0 37 38" fill="none" xmlns="http://www.w3.org/2000/svg">
<g filter="url(#filter0_d_346:179)">
<path fill-rule="evenodd" clip-rule="evenodd" d="M18.5 0C10.4887 0 4 6.7125 4 15C4 21.6375 8.15062 27.2437 13.9144 29.2312C14.6394 29.3625 14.9113 28.9125 14.9113 28.5187C14.9113 28.1625 14.8931 26.9812 14.8931 25.725C11.25 26.4187 10.3075 24.8062 10.0175 23.9625C9.85437 23.5312 9.1475 22.2 8.53125 21.8437C8.02375 21.5625 7.29875 20.8687 8.51312 20.85C9.655 20.8312 10.4706 21.9375 10.7425 22.3875C12.0475 24.6562 14.1319 24.0187 14.9656 23.625C15.0925 22.65 15.4731 21.9937 15.89 21.6187C12.6637 21.2437 9.2925 19.95 9.2925 14.2125C9.2925 12.5812 9.85437 11.2312 10.7787 10.1812C10.6337 9.80625 10.1262 8.26875 10.9237 6.20625C10.9237 6.20625 12.1381 5.8125 14.9113 7.74375C16.0712 7.40625 17.3038 7.2375 18.5363 7.2375C19.7688 7.2375 21.0013 7.40625 22.1613 7.74375C24.9344 5.79375 26.1488 6.20625 26.1488 6.20625C26.9463 8.26875 26.4388 9.80625 26.2938 10.1812C27.2181 11.2312 27.78 12.5625 27.78 14.2125C27.78 19.9687 24.3906 21.2437 21.1644 21.6187C21.69 22.0875 22.1431 22.9875 22.1431 24.3937C22.1431 26.4 22.125 28.0125 22.125 28.5187C22.125 28.9125 22.3969 29.3812 23.1219 29.2312C28.8494 27.2437 33 21.6187 33 15C33 6.7125 26.5112 0 18.5 0Z" fill="white"/>
</g>
<defs>
<filter id="filter0_d_346:179" x="0" y="0" width="37" height="38" filterUnits="userSpaceOnUse" color-interpolation-filters="sRGB">
<feFlood flood-opacity="0" result="BackgroundImageFix"/>
<feColorMatrix in="SourceAlpha" type="matrix" values="0 0 0 0 0 0 0 0 0 0 0 0 0 0 0 0 0 0 127 0" result="hardAlpha"/>
<feOffset dy="4"/>
<feGaussianBlur stdDeviation="2"/>
<feComposite in2="hardAlpha" operator="out"/>
<feColorMatrix type="matrix" values="0 0 0 0 0 0 0 0 0 0 0 0 0 0 0 0 0 0 0.25 0"/>
<feBlend mode="normal" in2="BackgroundImageFix" result="effect1_dropShadow_346:179"/>
<feBlend mode="normal" in="SourceGraphic" in2="effect1_dropShadow_346:179" result="shape"/>
</filter>
</defs>
</svg>
